<svg xmlns="http://www.w3.org/2000/svg" viewBox="0 0 146.052 27.722"><path d="M0 .54Q.467.453.958.371t.993-.142c.334-.041.669-.075 1-.1s.667-.037 1-.037A10.085 10.085 0 0 1 5.28.178a5.891 5.891 0 0 1 1.213.29 4.248 4.248 0 0 1 1.044.545 3.278 3.278 0 0 1 .815.848 4.057 4.057 0 0 1 .529 1.2 6.134 6.134 0 0 1 .189 1.6 7.385 7.385 0 0 1-.162 1.566 6.271 6.271 0 0 1-.475 1.4A5.415 5.415 0 0 1 7.67 8.8a4.732 4.732 0 0 1-2.3 1.483 5.267 5.267 0 0 1-1.5.2 6.326 6.326 0 0 1-.84-.056 7.629 7.629 0 0 1-.887-.176l-.871.105-.072-.002c.021-.188.043-.436.066-.746s.046-.668.069-1.078.043-.867.063-1.369.039-1.043.055-1.622.029-1.188.037-1.83S1.5 2.4 1.5 1.71a3.3 3.3 0 0 0-.018-.369.574.574 0 0 0-.09-.264.436.436 0 0 0-.217-.158A1.153 1.153 0 0 0 .787.866a5.35 5.35 0 0 0-.743.066zm2.65.146l-.013.655-.022 1.013a263.077 263.077 0 0 1-.075 2.66 306.545 306.545 0 0 1-.101 2.758c-.018.419-.036.8-.055 1.14s-.037.619-.055.833a5.445 5.445 0 0 0 .8.152c.244.024.486.037.723.037a4.362 4.362 0 0 0 1.32-.185A3.383 3.383 0 0 0 6.2 9.23a3.251 3.251 0 0 0 .751-.788 4.444 4.444 0 0 0 .506-1 6.093 6.093 0 0 0 .285-1.16 8.705 8.705 0 0 0 .09-1.261 6.919 6.919 0 0 0-.213-1.772 3.558 3.558 0 0 0-.7-1.384A3.2 3.2 0 0 0 5.669.96a4.917 4.917 0 0 0-1.89-.322q-.279 0-.558.012c-.187.009-.378.021-.571.036zm11.074 5.088a1.461 1.461 0 0 0-.114-.6 1.183 1.183 0 0 0-.716-.66 1.438 1.438 0 0 0-.466-.078 1.83 1.83 0 0 0-.528.064.958.958 0 0 0-.349.181.661.661 0 0 0-.194.269.957.957 0 0 0-.059.336 1.257 1.257 0 0 0 .077.425 1.617 1.617 0 0 0 .227.415l-.018.049a1.135 1.135 0 0 1-.5.123.817.817 0 0 1-.279-.047.621.621 0 0 1-.225-.134.609.609 0 0 1-.149-.216.7.7 0 0 1-.055-.285 1.007 1.007 0 0 1 .125-.488 1.648 1.648 0 0 1 .332-.417 2.512 2.512 0 0 1 .479-.339 3.827 3.827 0 0 1 .563-.252 3.751 3.751 0 0 1 .582-.158A2.914 2.914 0 0 1 13 3.907a2.245 2.245 0 0 1 .788.123 1.288 1.288 0 0 1 .532.358 1.462 1.462 0 0 1 .3.569 2.783 2.783 0 0 1 .094.756q0 .289-.023.638c-.017.231-.035.473-.056.726s-.039.516-.055.785-.024.537-.024.8a1.591 1.591 0 0 0 .235.951.733.733 0 0 0 .618.32 1.508 1.508 0 0 0 .756-.251l.127.188a2.1 2.1 0 0 1-.641.449 1.794 1.794 0 0 1-.73.154 1.416 1.416 0 0 1-.527-.1 1.132 1.132 0 0 1-.418-.288 1.3 1.3 0 0 1-.276-.475 2.106 2.106 0 0 1-.1-.672c0-.076 0-.152.006-.228s.015-.156.029-.242h-.025a6.517 6.517 0 0 1-.437.745 4.2 4.2 0 0 1-.545.655 2.788 2.788 0 0 1-.633.466 1.494 1.494 0 0 1-.7.178 1.4 1.4 0 0 1-.554-.106 1.262 1.262 0 0 1-.428-.29 1.3 1.3 0 0 1-.278-.437 1.516 1.516 0 0 1-.1-.551 1.692 1.692 0 0 1 .142-.7 1.877 1.877 0 0 1 .4-.568 2.437 2.437 0 0 1 .6-.432 4.251 4.251 0 0 1 .765-.3 5.7 5.7 0 0 1 .874-.18 7.293 7.293 0 0 1 .941-.059c.02-.185.037-.363.05-.536s.017-.371.017-.579zm-2.7 3.02a1.4 1.4 0 0 0 .037.327.814.814 0 0 0 .119.275.578.578 0 0 0 .207.186.61.61 0 0 0 .3.068 1.007 1.007 0 0 0 .409-.092 1.883 1.883 0 0 0 .416-.254 2.71 2.71 0 0 0 .39-.39 3.229 3.229 0 0 0 .337-.494 3.36 3.36 0 0 0 .248-.565 2.8 2.8 0 0 0 .13-.608q-.326.009-.646.041a4.653 4.653 0 0 0-.609.1 2.842 2.842 0 0 0-.534.184 1.571 1.571 0 0 0-.424.283 1.216 1.216 0 0 0-.279.4 1.321 1.321 0 0 0-.099.539zm7.257-7.533q.164.515.356 1.237t.415 1.702q.222.982.471 2.248t.52 2.865h.027q.408-.791.8-1.573c.258-.521.5-1.029.731-1.522s.438-.969.629-1.424.354-.883.492-1.281.244-.763.321-1.092a3.9 3.9 0 0 0 .114-.86A1.821 1.821 0 0 0 22.544.11l.035-.08q.084-.012.171-.021A1.783 1.783 0 0 1 22.931 0a1.839 1.839 0 0 1 .442.055 1.1 1.1 0 0 1 .388.182.967.967 0 0 1 .28.343 1.2 1.2 0 0 1 .107.536 3.2 3.2 0 0 1-.136.787q-.137.5-.391 1.173T23 4.575q-.367.827-.824 1.764t-1 1.969q-.543 1.031-1.149 2.111l-.721.058-.092-.013Q18.532 6.98 18.053 4.8a24.721 24.721 0 0 0-.826-3.092 3.051 3.051 0 0 0-.181-.4 1 1 0 0 0-.211-.274.73.73 0 0 0-.279-.153 1.368 1.368 0 0 0-.389-.048 2.7 2.7 0 0 0-.32.02 8.013 8.013 0 0 0-.4.054L15.4.515c.455-.116.834-.2 1.139-.264a3.891 3.891 0 0 1 .769-.093.932.932 0 0 1 .369.064.636.636 0 0 1 .248.2 1.385 1.385 0 0 1 .185.343q.079.205.171.496zm9.4 4.513a1.461 1.461 0 0 0-.114-.6 1.183 1.183 0 0 0-.716-.66 1.438 1.438 0 0 0-.466-.078 1.83 1.83 0 0 0-.528.065.958.958 0 0 0-.349.181.661.661 0 0 0-.194.269.957.957 0 0 0-.059.336 1.257 1.257 0 0 0 .077.425 1.617 1.617 0 0 0 .227.415l-.018.049a1.135 1.135 0 0 1-.5.123.817.817 0 0 1-.279-.047.621.621 0 0 1-.225-.134.609.609 0 0 1-.149-.216.7.7 0 0 1-.055-.285 1.007 1.007 0 0 1 .125-.488 1.648 1.648 0 0 1 .332-.417 2.544 2.544 0 0 1 .479-.339 3.827 3.827 0 0 1 .563-.252 3.751 3.751 0 0 1 .582-.158 2.922 2.922 0 0 1 .543-.055 2.245 2.245 0 0 1 .788.123 1.288 1.288 0 0 1 .532.358 1.462 1.462 0 0 1 .3.569 2.781 2.781 0 0 1 .095.756c0 .193-.009.406-.024.638s-.035.473-.056.726-.039.516-.055.785-.024.537-.024.8a1.591 1.591 0 0 0 .235.951.733.733 0 0 0 .618.32 1.508 1.508 0 0 0 .756-.251l.127.188a2.1 2.1 0 0 1-.641.449 1.794 1.794 0 0 1-.73.154 1.416 1.416 0 0 1-.527-.1 1.132 1.132 0 0 1-.418-.288 1.3 1.3 0 0 1-.272-.482 2.106 2.106 0 0 1-.1-.672c0-.076 0-.152.006-.228s.015-.156.029-.242h-.026a6.517 6.517 0 0 1-.437.745 4.2 4.2 0 0 1-.545.655 2.788 2.788 0 0 1-.633.466 1.494 1.494 0 0 1-.705.178 1.4 1.4 0 0 1-.554-.106 1.262 1.262 0 0 1-.428-.29 1.317 1.317 0 0 1-.278-.437 1.516 1.516 0 0 1-.1-.551 1.692 1.692 0 0 1 .142-.7 1.877 1.877 0 0 1 .4-.568 2.437 2.437 0 0 1 .6-.432 4.28 4.28 0 0 1 .765-.3 5.7 5.7 0 0 1 .874-.18 7.3 7.3 0 0 1 .941-.059c.02-.185.037-.363.05-.536s.019-.365.019-.573zm-2.7 3.02a1.349 1.349 0 0 0 .038.327.793.793 0 0 0 .118.275.578.578 0 0 0 .207.186.61.61 0 0 0 .3.068 1.007 1.007 0 0 0 .409-.092 1.883 1.883 0 0 0 .416-.254 2.71 2.71 0 0 0 .39-.39 3.229 3.229 0 0 0 .341-.494 3.36 3.36 0 0 0 .248-.565 2.8 2.8 0 0 0 .13-.608q-.325.009-.646.041a4.653 4.653 0 0 0-.609.1 2.842 2.842 0 0 0-.534.184 1.571 1.571 0 0 0-.424.283 1.216 1.216 0 0 0-.279.4 1.321 1.321 0 0 0-.103.539zm6.29-3.556a1.454 1.454 0 0 0-.026-.3.506.506 0 0 0-.081-.2.308.308 0 0 0-.139-.1.578.578 0 0 0-.2-.031 1.987 1.987 0 0 0-.378.044q-.22.045-.5.12l-.066-.317q.312-.11.6-.2c.191-.061.368-.112.529-.156s.3-.077.426-.1a1.7 1.7 0 0 1 .291-.035.519.519 0 0 1 .4.151.755.755 0 0 1 .143.521q0 .043-.009.2l-.024.407-.037.565c-.014.213-.032.438-.051.678s-.04.489-.064.745-.048.512-.074.767h.026a12.367 12.367 0 0 1 .716-1.914 6.637 6.637 0 0 1 .778-1.266 2.8 2.8 0 0 1 .787-.7 1.559 1.559 0 0 1 .747-.215 1.271 1.271 0 0 1 .474.098 1.076 1.076 0 0 1 .406.295 1.491 1.491 0 0 1 .284.52 2.481 2.481 0 0 1 .105.771q0 .132-.015.354l-.038.5c-.015.187-.031.374-.05.578s-.036.4-.051.6-.027.383-.037.561-.016.331-.016.464a4.381 4.381 0 0 0 .029.557 1.062 1.062 0 0 0 .094.341.355.355 0 0 0 .176.171.692.692 0 0 0 .268.046 1.911 1.911 0 0 0 .475-.063 3 3 0 0 0 .5-.178l.083.228a2.7 2.7 0 0 1-.4.259 5.064 5.064 0 0 1-.508.242 3.827 3.827 0 0 1-.529.178 1.864 1.864 0 0 1-.466.068.527.527 0 0 1-.373-.127.778.778 0 0 1-.2-.347 2.333 2.333 0 0 1-.096-.518q-.02-.294-.019-.633c0-.275.009-.559.028-.85s.04-.57.064-.833l.064-.719c.02-.219.028-.387.028-.516a1.214 1.214 0 0 0-.193-.758.622.622 0 0 0-.514-.244.9.9 0 0 0-.536.215 2.943 2.943 0 0 0-.56.591 5.953 5.953 0 0 0-.537.888 8.974 8.974 0 0 0-.463 1.107 10.2 10.2 0 0 0-.342 1.243 8.655 8.655 0 0 0-.172 1.3l-.918.114-.07-.005c.023-.277.045-.581.065-.909s.04-.661.058-1 .033-.674.046-1.006l.035-.931c.011-.288.017-.548.022-.777s.005-.407.005-.539zm18.207 4.729q-.316.136-.582.235c-.178.066-.342.12-.495.162a3.706 3.706 0 0 1-.426.095 2.547 2.547 0 0 1-.382.03.986.986 0 0 1-.44-.093.768.768 0 0 1-.314-.311 1.729 1.729 0 0 1-.187-.566 5.187 5.187 0 0 1-.061-.871V7.631c0-.239 0-.492.007-.76s.006-.541.01-.819.01-.548.016-.807l.018-.727c.006-.227.011-.417.017-.576.015-.343.031-.685.051-1.026s.044-.676.077-1l-.034-.016c-.049.132-.109.283-.18.451s-.159.371-.268.609q-.387.852-.788 1.766T44.7 6.59q-.411.951-.828 1.929t-.831 1.953l-.215-.008c-.061-.2-.136-.435-.224-.706s-.185-.564-.29-.879l-.336-1c-.119-.352-.24-.7-.363-1.064s-.247-.716-.371-1.075-.245-.7-.36-1.032-.226-.643-.33-.934-.2-.551-.279-.78a45.756 45.756 0 0 1-.422-1.252l-.031.013V3.02q0 .7-.022 1.426t-.057 1.433q-.036.707-.084 1.365t-.1 1.217c-.029.307-.057.569-.082.784s-.052.4-.083.543a1.352 1.352 0 0 1-.112.345.5.5 0 0 1-.165.191.56.56 0 0 1-.241.084 3 3 0 0 1-.341.018h-.232l-.141-.007-.062-.043a6.707 6.707 0 0 0 .368-.952q.159-.525.281-1.114t.208-1.219c.059-.421.108-.84.147-1.26s.072-.831.1-1.238.043-.794.055-1.16.02-.7.024-1.016.007-.581.007-.813a1.781 1.781 0 0 0-.031-.369.492.492 0 0 0-.1-.235.4.4 0 0 0-.211-.118A1.423 1.423 0 0 0 38.6.853a3.28 3.28 0 0 0-.334.019C38.142.886 38 .9 37.85.927L37.8.54q.8-.185 1.323-.274a5.093 5.093 0 0 1 .826-.09 1.191 1.191 0 0 1 .274.024.541.541 0 0 1 .2.1.65.65 0 0 1 .152.18 1.741 1.741 0 0 1 .127.28q.233.649.492 1.384l.53 1.5.541 1.531q.269.766.52 1.487l.178.521c.054.157.1.3.149.435s.088.261.128.382.077.243.112.362h.031c.047-.125.095-.249.145-.371s.1-.247.158-.378.117-.27.182-.419l.222-.506.639-1.459.682-1.546q.349-.791.71-1.6.36-.813.725-1.631A.4.4 0 0 1 46.953.3.563.563 0 0 1 47.1.213a.741.741 0 0 1 .169-.046 1.088 1.088 0 0 1 .163-.014 1.331 1.331 0 0 1 .279.034 1.578 1.578 0 0 1 .292.094q-.063.719-.113 1.38t-.09 1.283q-.036.624-.062 1.233c-.017.406-.031.815-.039 1.228s-.015.835-.02 1.266-.007.881-.007 1.35a6.637 6.637 0 0 0 .04.794 1.75 1.75 0 0 0 .138.539.67.67 0 0 0 .266.305.818.818 0 0 0 .418.1c.061 0 .12 0 .178-.005a1.293 1.293 0 0 0 .178-.02 1.878 1.878 0 0 0 .2-.045c.075-.021.16-.047.257-.08zm.237-2.202a4.52 4.52 0 0 1 .093-.9 4.644 4.644 0 0 1 .272-.885 4.2 4.2 0 0 1 .446-.8 3.252 3.252 0 0 1 .613-.657 2.843 2.843 0 0 1 .774-.445 2.609 2.609 0 0 1 .927-.162 2.039 2.039 0 0 1 .995.237 2.3 2.3 0 0 1 .728.626 2.806 2.806 0 0 1 .445.886 3.43 3.43 0 0 1 .152 1.015 4.609 4.609 0 0 1-.367 1.787 4.351 4.351 0 0 1-.448.8 3.308 3.308 0 0 1-.613.657 2.786 2.786 0 0 1-.774.443 2.566 2.566 0 0 1-.927.163 2.036 2.036 0 0 1-.995-.237 2.234 2.234 0 0 1-.725-.626 2.847 2.847 0 0 1-.444-.886 3.458 3.458 0 0 1-.152-1.016zm1.051-.417a4.048 4.048 0 0 0 .046.606 3.342 3.342 0 0 0 .143.594 2.96 2.96 0 0 0 .239.533 1.853 1.853 0 0 0 .339.434 1.507 1.507 0 0 0 .439.289 1.345 1.345 0 0 0 .538.105 1.126 1.126 0 0 0 .565-.138A1.406 1.406 0 0 0 53.5 9.4a2.132 2.132 0 0 0 .3-.522 4.142 4.142 0 0 0 .186-.61 4.883 4.883 0 0 0 .1-.621c.019-.205.028-.394.028-.567a4.025 4.025 0 0 0-.046-.608 3.31 3.31 0 0 0-.142-.589 3.1 3.1 0 0 0-.24-.533 1.83 1.83 0 0 0-.339-.43 1.524 1.524 0 0 0-.439-.288 1.328 1.328 0 0 0-.538-.106 1.136 1.136 0 0 0-.565.137 1.384 1.384 0 0 0-.421.365 2.045 2.045 0 0 0-.3.523 4.049 4.049 0 0 0-.187.606 4.814 4.814 0 0 0-.1.622c-.022.21-.031.399-.031.569zm6.209-2.11a1.526 1.526 0 0 0-.026-.3.506.506 0 0 0-.082-.2.3.3 0 0 0-.138-.1.588.588 0 0 0-.2-.031 2 2 0 0 0-.378.044q-.219.045-.5.12l-.066-.317q.312-.11.6-.2c.191-.061.368-.112.529-.156s.3-.077.426-.1a1.694 1.694 0 0 1 .29-.035.522.522 0 0 1 .4.151.755.755 0 0 1 .143.521q0 .043-.009.2l-.025.407c-.011.164-.022.352-.037.565s-.031.438-.05.678-.04.489-.064.745-.048.512-.075.767h.027a12.165 12.165 0 0 1 .716-1.914 6.587 6.587 0 0 1 .778-1.266 2.8 2.8 0 0 1 .787-.7 1.553 1.553 0 0 1 .747-.215 1.262 1.262 0 0 1 .474.098 1.069 1.069 0 0 1 .406.295 1.459 1.459 0 0 1 .284.52 2.479 2.479 0 0 1 .106.771c0 .088-.006.206-.016.354s-.022.313-.037.5-.032.374-.05.578-.037.4-.051.6-.028.383-.037.561-.016.331-.016.464a4.408 4.408 0 0 0 .028.557 1.035 1.035 0 0 0 .095.341.355.355 0 0 0 .176.171.685.685 0 0 0 .268.046 1.923 1.923 0 0 0 .475-.063 2.992 2.992 0 0 0 .5-.178l.084.228a2.755 2.755 0 0 1-.4.259 5.171 5.171 0 0 1-.508.242 3.872 3.872 0 0 1-.529.178 1.864 1.864 0 0 1-.466.068.531.531 0 0 1-.374-.127.776.776 0 0 1-.2-.347 2.221 2.221 0 0 1-.088-.514q-.019-.294-.02-.633c0-.275.01-.559.029-.85s.04-.57.064-.833l.064-.719c.02-.219.028-.387.028-.516a1.214 1.214 0 0 0-.194-.758.621.621 0 0 0-.514-.244.9.9 0 0 0-.536.215 3 3 0 0 0-.56.591 6.038 6.038 0 0 0-.536.888 9.132 9.132 0 0 0-.464 1.107 10.2 10.2 0 0 0-.353 1.239 8.652 8.652 0 0 0-.171 1.3l-.918.114-.071-.005c.024-.277.046-.581.066-.909a92.346 92.346 0 0 0 .138-2.937 61.734 61.734 0 0 0 .031-1.316zM68.326 8.93c.018.008.04.021.068.037a.55.55 0 0 1 .077.053.448.448 0 0 1 .062.061.111.111 0 0 1 .026.065.059.059 0 0 1-.013.035 3.568 3.568 0 0 1-.53.594 3.154 3.154 0 0 1-.589.422 2.561 2.561 0 0 1-.621.251 2.51 2.51 0 0 1-.624.081 2.161 2.161 0 0 1-.967-.216 2.291 2.291 0 0 1-.756-.587 2.784 2.784 0 0 1-.5-.877 3.235 3.235 0 0 1-.177-1.079 4.447 4.447 0 0 1 .4-1.837 4.043 4.043 0 0 1 .477-.793 3.328 3.328 0 0 1 .639-.638 2.968 2.968 0 0 1 .786-.424 2.722 2.722 0 0 1 .921-.153 2.141 2.141 0 0 1 .62.088 1.633 1.633 0 0 1 .516.252 1.253 1.253 0 0 1 .354.406 1.133 1.133 0 0 1 .132.55 1.15 1.15 0 0 1-.286.779 2.3 2.3 0 0 1-.806.566 5.57 5.57 0 0 1-1.21.376 13.087 13.087 0 0 1-1.506.214v.074a3.511 3.511 0 0 0 .143 1.029 2.564 2.564 0 0 0 .393.8 1.855 1.855 0 0 0 .589.515 1.5 1.5 0 0 0 .73.186 1.889 1.889 0 0 0 .811-.2 2.939 2.939 0 0 0 .841-.63zM67.5 5.4a1.061 1.061 0 0 0-.068-.379.963.963 0 0 0-.189-.3.879.879 0 0 0-.648-.28 1.3 1.3 0 0 0-.519.1 1.429 1.429 0 0 0-.417.274 1.923 1.923 0 0 0-.326.405 3.035 3.035 0 0 0-.239.489 3.968 3.968 0 0 0-.16.532 4.4 4.4 0 0 0-.088.532 7.818 7.818 0 0 0 1.118-.152 3.629 3.629 0 0 0 .835-.276 1.47 1.47 0 0 0 .521-.405.862.862 0 0 0 .18-.54zM71.684.791q-.184.836-.31 1.725t-.213 1.755c.137.006.271.011.4.013l.364.01h.539a3.556 3.556 0 0 0 .655-.049l.035.137a.532.532 0 0 1 .013.114.239.239 0 0 1-.161.251 1.45 1.45 0 0 1-.463.057c-.193 0-.41-.012-.648-.036s-.5-.044-.785-.066a33.364 33.364 0 0 0-.171 3.081 6.554 6.554 0 0 0 .048.839 2.082 2.082 0 0 0 .172.627.915.915 0 0 0 .338.393 1 1 0 0 0 .545.136 1.908 1.908 0 0 0 .53-.084 3.914 3.914 0 0 0 .665-.267.459.459 0 0 1 .136.29q-.272.18-.549.327a5.378 5.378 0 0 1-.545.253 3.744 3.744 0 0 1-.518.163 2.2 2.2 0 0 1-.475.057 1.332 1.332 0 0 1-.538-.108.98.98 0 0 1-.422-.383 2.191 2.191 0 0 1-.277-.74 5.816 5.816 0 0 1-.1-1.178c0-.266 0-.541.013-.824s.021-.568.035-.859.034-.58.058-.869.049-.577.079-.858c-.232 0-.446.013-.644.028a3.2 3.2 0 0 0-.508.078.149.149 0 0 1-.013-.062.237.237 0 0 1 .09-.174.918.918 0 0 1 .251-.147 2.179 2.179 0 0 1 .384-.11 4.03 4.03 0 0 1 .492-.061q.1-.918.216-1.735t.228-1.459a.44.44 0 0 1 .081-.19.476.476 0 0 1 .139-.119.622.622 0 0 1 .174-.057 1.034 1.034 0 0 1 .181-.017 1.051 1.051 0 0 1 .261.03.966.966 0 0 1 .218.088zM64.345 14.56a1.446 1.446 0 0 0-.031-.317.484.484 0 0 0-.107-.215.471.471 0 0 0-.214-.123 1.286 1.286 0 0 0-.347-.039 5.363 5.363 0 0 0-.743.066l-.052-.392c.275-.049.576-.1.9-.153s.663-.1 1.007-.146.69-.079 1.037-.107.681-.041 1-.041a5.992 5.992 0 0 1 1.189.113 2.747 2.747 0 0 1 .971.39 1.94 1.94 0 0 1 .657.735 2.472 2.472 0 0 1 .241 1.152 3.684 3.684 0 0 1-.27 1.444 3.049 3.049 0 0 1-.758 1.083 3.309 3.309 0 0 1-1.171.678 4.586 4.586 0 0 1-1.51.236.432.432 0 0 1-.259-.058c-.05-.037-.074-.119-.074-.246v-.057a.378.378 0 0 1 0-.066 4 4 0 0 0 1.109-.134 2.637 2.637 0 0 0 .781-.355 1.957 1.957 0 0 0 .505-.506 2.465 2.465 0 0 0 .29-.584 2.827 2.827 0 0 0 .132-.6 5.319 5.319 0 0 0 .031-.532 2.769 2.769 0 0 0-.178-1.061 1.7 1.7 0 0 0-.481-.67 1.809 1.809 0 0 0-.714-.354 3.528 3.528 0 0 0-.87-.1c-.155 0-.3.006-.446.017s-.3.029-.464.048l-.024.906-.035 1.3-.046 1.612-.053 1.833a1482.623 1482.623 0 0 1-.119 3.975l-1.041.132-.079-.009.1-2.391q.047-1.13.073-2.2.028-1.071.046-2.118t.017-2.146zm9.285 4.214a1.461 1.461 0 0 0-.114-.6 1.183 1.183 0 0 0-.716-.66 1.433 1.433 0 0 0-.466-.078 1.818 1.818 0 0 0-.527.065.955.955 0 0 0-.35.181.668.668 0 0 0-.193.269.957.957 0 0 0-.059.336 1.255 1.255 0 0 0 .076.425 1.648 1.648 0 0 0 .227.415l-.018.049a1.135 1.135 0 0 1-.5.123.817.817 0 0 1-.279-.047.615.615 0 0 1-.374-.35.7.7 0 0 1-.055-.285 1.007 1.007 0 0 1 .125-.488 1.671 1.671 0 0 1 .332-.417 2.544 2.544 0 0 1 .479-.339 3.874 3.874 0 0 1 .563-.252 3.751 3.751 0 0 1 .582-.158 2.922 2.922 0 0 1 .543-.055 2.245 2.245 0 0 1 .788.123 1.292 1.292 0 0 1 .533.358 1.488 1.488 0 0 1 .3.569 2.823 2.823 0 0 1 .094.756c0 .193-.009.406-.024.638s-.035.473-.055.726-.039.516-.056.785-.023.537-.023.8a1.6 1.6 0 0 0 .234.951.733.733 0 0 0 .618.32 1.5 1.5 0 0 0 .756-.251l.127.188a2.1 2.1 0 0 1-.641.449 1.794 1.794 0 0 1-.73.154 1.416 1.416 0 0 1-.527-.1 1.14 1.14 0 0 1-.418-.288 1.3 1.3 0 0 1-.272-.482 2.135 2.135 0 0 1-.1-.672c0-.076 0-.152.007-.228s.014-.156.028-.242h-.026a6.517 6.517 0 0 1-.437.745 4.2 4.2 0 0 1-.545.655 2.788 2.788 0 0 1-.633.466 1.494 1.494 0 0 1-.7.178 1.4 1.4 0 0 1-.554-.106 1.262 1.262 0 0 1-.428-.29 1.3 1.3 0 0 1-.277-.437 1.5 1.5 0 0 1-.1-.551 1.692 1.692 0 0 1 .142-.7 1.913 1.913 0 0 1 .4-.568 2.437 2.437 0 0 1 .6-.432 4.28 4.28 0 0 1 .765-.3 5.714 5.714 0 0 1 .875-.18 7.277 7.277 0 0 1 .94-.059c.021-.185.038-.363.05-.536s.013-.365.013-.573zm-2.7 3.02a1.349 1.349 0 0 0 .038.327.812.812 0 0 0 .118.275.578.578 0 0 0 .207.186.614.614 0 0 0 .3.068 1 1 0 0 0 .407-.092 1.883 1.883 0 0 0 .416-.254 2.715 2.715 0 0 0 .391-.39 3.3 3.3 0 0 0 .336-.494 3.363 3.363 0 0 0 .249-.565 2.863 2.863 0 0 0 .129-.608q-.326.009-.646.041a4.609 4.609 0 0 0-.608.1 2.828 2.828 0 0 0-.535.184 1.565 1.565 0 0 0-.423.283 1.218 1.218 0 0 0-.28.4 1.321 1.321 0 0 0-.097.539zm11.125-4.461c.228 0 .435 0 .619-.009s.328-.011.431-.017a8.48 8.48 0 0 0 .365-.023 2.481 2.481 0 0 0 .29-.035 1.03 1.03 0 0 1 .048.264.257.257 0 0 1-.16.261 1.221 1.221 0 0 1-.464.069q-.29 0-.65-.009t-.787-.026c-.032.337-.059.658-.079.963s-.038.585-.05.843-.023.487-.029.686-.009.361-.009.487a6.554 6.554 0 0 0 .048.839 2.111 2.111 0 0 0 .172.627.922.922 0 0 0 .338.393 1 1 0 0 0 .545.136 1.89 1.89 0 0 0 .529-.084 3.889 3.889 0 0 0 .666-.267.459.459 0 0 1 .136.29q-.271.18-.549.327a5.378 5.378 0 0 1-.545.253 3.744 3.744 0 0 1-.518.163 2.2 2.2 0 0 1-.475.057 1.329 1.329 0 0 1-.538-.108.975.975 0 0 1-.422-.383 2.191 2.191 0 0 1-.277-.74 5.889 5.889 0 0 1-.1-1.178q0-.777.046-1.61t.134-1.721q-.544-.021-1.131-.035t-1.22-.013h-.329q-.048.471-.082.912a39.133 39.133 0 0 0-.081 1.557c-.006.224-.009.418-.009.585a6.54 6.54 0 0 0 .049.839 2.083 2.083 0 0 0 .171.627.917.917 0 0 0 .339.393 1 1 0 0 0 .544.136 1.848 1.848 0 0 0 .51-.077 4.393 4.393 0 0 0 .642-.248.467.467 0 0 1 .136.29 5.97 5.97 0 0 1-.517.308 5.45 5.45 0 0 1-.531.244 3.978 3.978 0 0 1-.518.162 2.075 2.075 0 0 1-.477.06 1.334 1.334 0 0 1-.539-.108.986.986 0 0 1-.422-.383 2.192 2.192 0 0 1-.276-.74 5.744 5.744 0 0 1-.1-1.178q0-.808.048-1.672t.136-1.716c-.231 0-.446.012-.644.029a3.2 3.2 0 0 0-.507.076.063.063 0 0 1-.011-.035.23.23 0 0 1 0-.035.241.241 0 0 1 .09-.176.88.88 0 0 1 .251-.151 2.13 2.13 0 0 1 .384-.115 3.783 3.783 0 0 1 .492-.063 57.548 57.548 0 0 1 .192-1.549c.035-.244.067-.477.1-.7s.067-.424.1-.609a.46.46 0 0 1 .218-.323.5.5 0 0 1 .167-.063.9.9 0 0 1 .178-.018 1.022 1.022 0 0 1 .259.031.943.943 0 0 1 .215.088c-.05.246-.1.5-.14.767s-.085.532-.123.8-.074.538-.106.806-.061.53-.088.784c.448 0 .9 0 1.338.016l1.343.032q.087-.86.2-1.682t.252-1.577a.429.429 0 0 1 .082-.19.46.46 0 0 1 .138-.119.617.617 0 0 1 .172-.061 1.014 1.014 0 0 1 .18-.017 1.051 1.051 0 0 1 .261.03.948.948 0 0 1 .218.088q-.093.417-.172.861c-.052.3-.1.594-.145.9s-.083.6-.118.9-.066.6-.093.886zm6.732 4.597a.876.876 0 0 1 .068.037.55.55 0 0 1 .077.053.448.448 0 0 1 .062.061.111.111 0 0 1 .026.065.066.066 0 0 1-.013.035 3.613 3.613 0 0 1-.53.594 3.154 3.154 0 0 1-.589.422 2.561 2.561 0 0 1-.621.251 2.518 2.518 0 0 1-.625.081 2.164 2.164 0 0 1-.967-.216 2.291 2.291 0 0 1-.756-.587 2.8 2.8 0 0 1-.494-.877 3.235 3.235 0 0 1-.177-1.079 4.447 4.447 0 0 1 .4-1.837 4.088 4.088 0 0 1 .476-.793 3.362 3.362 0 0 1 .64-.638 2.968 2.968 0 0 1 .786-.424 2.722 2.722 0 0 1 .921-.153 2.146 2.146 0 0 1 .62.088 1.633 1.633 0 0 1 .516.252 1.239 1.239 0 0 1 .353.406 1.133 1.133 0 0 1 .133.55A1.145 1.145 0 0 1 88.8 19a2.293 2.293 0 0 1-.806.566 5.553 5.553 0 0 1-1.21.376 13.1 13.1 0 0 1-1.5.214v.074a3.511 3.511 0 0 0 .142 1.029 2.586 2.586 0 0 0 .393.8 1.848 1.848 0 0 0 .59.515 1.493 1.493 0 0 0 .728.186 1.9 1.9 0 0 0 .812-.2 2.952 2.952 0 0 0 .838-.63zm-.827-3.53a1.061 1.061 0 0 0-.067-.379.946.946 0 0 0-.189-.3.875.875 0 0 0-.288-.2.889.889 0 0 0-.36-.075 1.3 1.3 0 0 0-.519.1 1.416 1.416 0 0 0-.417.274 1.923 1.923 0 0 0-.326.405 3.035 3.035 0 0 0-.239.489 3.972 3.972 0 0 0-.161.532 4.6 4.6 0 0 0-.088.532 7.834 7.834 0 0 0 1.119-.152 3.629 3.629 0 0 0 .835-.276 1.47 1.47 0 0 0 .521-.405.861.861 0 0 0 .179-.545zm2.581 5.006h-.071a72.388 72.388 0 0 0 .123-1.909c.017-.339.033-.674.046-1.006s.026-.643.035-.931.018-.548.023-.777.007-.408.007-.54a2.517 2.517 0 0 0-.014-.281.486.486 0 0 0-.06-.2.27.27 0 0 0-.133-.116.62.62 0 0 0-.238-.038 1.348 1.348 0 0 0-.153.009 4.652 4.652 0 0 0-.394.073l-.279.068-.065-.317a11.669 11.669 0 0 1 1.181-.371 3.257 3.257 0 0 1 .612-.107.483.483 0 0 1 .415.169.842.842 0 0 1 .125.5c0 .02 0 .081-.009.18s-.014.229-.025.389l-.037.556c-.015.211-.031.437-.05.679s-.04.494-.064.755l-.074.785h.043a16.3 16.3 0 0 1 .477-1.606 7.1 7.1 0 0 1 .6-1.294 3.152 3.152 0 0 1 .73-.863 1.37 1.37 0 0 1 .872-.315.9.9 0 0 1 .311.053.729.729 0 0 1 .251.148.7.7 0 0 1 .167.223.659.659 0 0 1 .062.284.889.889 0 0 1-.086.38.876.876 0 0 1-.271.323h-.035a1.416 1.416 0 0 0-.349-.222.913.913 0 0 0-.349-.069 1 1 0 0 0-.382.076 1.131 1.131 0 0 0-.339.215 2.509 2.509 0 0 0-.466.6 6.322 6.322 0 0 0-.393.833c-.118.3-.226.625-.321.96s-.177.662-.246.98-.125.617-.167.9-.072.515-.09.705zm4.895-.006a60.175 60.175 0 0 0 .112-1.951 114.376 114.376 0 0 0 .079-2.179l.027-1.022c.008-.322.012-.626.014-.9a.372.372 0 0 1 .058-.215.436.436 0 0 1 .141-.133.554.554 0 0 1 .18-.065.964.964 0 0 1 .176-.018 1.192 1.192 0 0 1 .3.037 1.644 1.644 0 0 1 .264.1c-.041.228-.079.492-.11.789l-.1.956c-.036.34-.06.694-.087 1.063s-.059.74-.091 1.112h.027a12.12 12.12 0 0 1 .716-1.911 6.56 6.56 0 0 1 .778-1.259 2.764 2.764 0 0 1 .786-.692 1.585 1.585 0 0 1 .747-.211 1.267 1.267 0 0 1 .475.092 1.076 1.076 0 0 1 .406.3 1.474 1.474 0 0 1 .283.52 2.45 2.45 0 0 1 .106.771q0 .132-.015.354a41.143 41.143 0 0 1-.088 1.078c-.019.204-.036.4-.05.6s-.028.383-.037.561-.016.331-.016.464a4.606 4.606 0 0 0 .028.557 1.06 1.06 0 0 0 .095.341.351.351 0 0 0 .176.171.688.688 0 0 0 .268.046 1.923 1.923 0 0 0 .475-.063 3.024 3.024 0 0 0 .5-.178l.084.228a2.7 2.7 0 0 1-.4.259 5.171 5.171 0 0 1-.508.242 3.839 3.839 0 0 1-.53.178 1.857 1.857 0 0 1-.465.068.528.528 0 0 1-.374-.127.776.776 0 0 1-.2-.347 2.276 2.276 0 0 1-.088-.514q-.02-.294-.02-.633c0-.275.01-.559.028-.85s.04-.57.065-.833.044-.5.063-.719.029-.387.029-.516a1.214 1.214 0 0 0-.194-.758.621.621 0 0 0-.513-.244.9.9 0 0 0-.537.215 2.971 2.971 0 0 0-.56.591 5.953 5.953 0 0 0-.536.888 9.132 9.132 0 0 0-.464 1.107 10.2 10.2 0 0 0-.343 1.246 8.655 8.655 0 0 0-.172 1.3l-.918.114zm11.364-8.818a2.918 2.918 0 0 0-.019-.353.511.511 0 0 0-.09-.24.408.408 0 0 0-.2-.135 1.2 1.2 0 0 0-.345-.041c-.1 0-.216 0-.356.015s-.288.027-.44.051l-.044-.364q.646-.168 1.11-.246a4.722 4.722 0 0 1 .767-.081 1.029 1.029 0 0 1 .445.078.478.478 0 0 1 .229.228 1 1 0 0 1 .086.372c.009.147.014.314.014.5v.291c0 .181-.008.422-.016.723l-.026 1.046a307.71 307.71 0 0 1-.081 2.63 112.91 112.91 0 0 1-.13 2.623c-.025.395-.052.742-.081 1.037q.422-.06.8-.09t.693-.028c.3 0 .584.007.847.024s.52.024.775.024a1.333 1.333 0 0 0 .477-.079.8.8 0 0 0 .358-.277 1.642 1.642 0 0 0 .248-.536 4.887 4.887 0 0 0 .152-.861l.382.03a7.51 7.51 0 0 1-.095 1.272 2.443 2.443 0 0 1-.256.787.94.94 0 0 1-.407.4 1.273 1.273 0 0 1-.547.112 3.376 3.376 0 0 1-.514-.044q-.282-.043-.613-.1c-.221-.038-.461-.07-.719-.1a7.457 7.457 0 0 0-.834-.045 8.277 8.277 0 0 0-.868.051 7.4 7.4 0 0 0-.96.17l-.08-.01q.073-.6.13-1.294t.092-1.438a98.769 98.769 0 0 0 .104-3.094c.01-.521.013-1.036.017-1.543s-.005-.993-.005-1.465zm7.906 2.526q-.075.5-.127 1a26.336 26.336 0 0 0-.15 2.621c0 .3 0 .567.013.785s.023.4.045.551a1.914 1.914 0 0 0 .076.359.577.577 0 0 0 .114.206.313.313 0 0 0 .158.094.853.853 0 0 0 .205.022 1.826 1.826 0 0 0 .455-.063 2.972 2.972 0 0 0 .494-.178l.084.228a2.838 2.838 0 0 1-.4.259 5.081 5.081 0 0 1-.5.242 3.954 3.954 0 0 1-.516.178 1.7 1.7 0 0 1-.438.068 1.166 1.166 0 0 1-.223-.019.358.358 0 0 1-.183-.1.675.675 0 0 1-.145-.232 1.946 1.946 0 0 1-.106-.418c-.027-.176-.049-.395-.063-.658s-.023-.583-.023-.959c0-.219 0-.468.007-.745s.011-.574.02-.892.02-.653.036-1.006.033-.717.056-1.092a.367.367 0 0 1 .067-.2.374.374 0 0 1 .14-.119.628.628 0 0 1 .178-.057 1.116 1.116 0 0 1 .174-.015 1.2 1.2 0 0 1 .552.14zm-.382-1.986a.561.561 0 0 1-.273-.063.652.652 0 0 1-.2-.167.728.728 0 0 1-.128-.238.931.931 0 0 1 .023-.624.81.81 0 0 1 .171-.255.7.7 0 0 1 .233-.153.67.67 0 0 1 .251-.051.645.645 0 0 1 .268.055.627.627 0 0 1 .2.152A.679.679 0 0 1 115 14a.746.746 0 0 1 .047.271.917.917 0 0 1-.052.3.989.989 0 0 1-.148.276.754.754 0 0 1-.228.2.6.6 0 0 1-.295.075zm4.285-3.622q-.084.7-.167 1.45t-.16 1.512q-.078.765-.15 1.538c-.049.516-.092 1.024-.132 1.527s-.074.995-.1 1.477-.053.944-.07 1.387h.048a10.117 10.117 0 0 1 .747-1.5 6.729 6.729 0 0 1 .813-1.09 3.384 3.384 0 0 1 .819-.663 1.586 1.586 0 0 1 .768-.225 1.216 1.216 0 0 1 .535.112 1.3 1.3 0 0 1 .4.3 1.662 1.662 0 0 1 .287.431 3 3 0 0 1 .184.51 3.49 3.49 0 0 1 .1.538 4.893 4.893 0 0 1 .028.51 5.522 5.522 0 0 1-.129 1.223 4.79 4.79 0 0 1-.358 1.037 3.953 3.953 0 0 1-.54.833 3.549 3.549 0 0 1-.678.616 2.912 2.912 0 0 1-.769.379 2.627 2.627 0 0 1-.813.13 2.5 2.5 0 0 1-.547-.061 2.45 2.45 0 0 1-.536-.19 2.251 2.251 0 0 1-.494-.327 2.353 2.353 0 0 1-.417-.472 3.8 3.8 0 0 1-.313.633 2.972 2.972 0 0 1-.3.4l-.228-.057a7.459 7.459 0 0 0 .356-1.615q.115-.942.176-2.133.022-.51.055-1.16t.068-1.371c.024-.481.048-.973.075-1.475l.078-1.466c.025-.475.052-.923.076-1.348s.045-.8.065-1.13a.31.31 0 0 1 .067-.183.471.471 0 0 1 .154-.123.861.861 0 0 1 .208-.068 1.3 1.3 0 0 1 .231-.022 1.276 1.276 0 0 1 .563.136zm2.878 8.24a4.228 4.228 0 0 0-.046-.615 2.633 2.633 0 0 0-.145-.574 1.232 1.232 0 0 0-.259-.422.526.526 0 0 0-.389-.164 1.135 1.135 0 0 0-.529.134 2.245 2.245 0 0 0-.506.36 3.942 3.942 0 0 0-.468.523 7.353 7.353 0 0 0-.42.622 7.184 7.184 0 0 0-.351.657c-.1.221-.194.431-.268.63a5.2 5.2 0 0 0-.174.543 1.689 1.689 0 0 0-.061.388 1.666 1.666 0 0 0 .2.5 1.467 1.467 0 0 0 .769.618 1.542 1.542 0 0 0 .508.083 1.648 1.648 0 0 0 .828-.222 2.06 2.06 0 0 0 .679-.644 3.419 3.419 0 0 0 .459-1.03 5.158 5.158 0 0 0 .173-1.39zm2.8 3.666h-.071a72.388 72.388 0 0 0 .123-1.909c.017-.339.034-.674.046-1.006s.026-.643.035-.931.018-.548.023-.777.007-.408.007-.54a2.517 2.517 0 0 0-.014-.281.486.486 0 0 0-.06-.2.27.27 0 0 0-.133-.116.62.62 0 0 0-.238-.038 1.361 1.361 0 0 0-.153.009c-.053.006-.112.015-.176.027s-.137.027-.218.046l-.279.068-.065-.317a11.669 11.669 0 0 1 1.181-.371 3.257 3.257 0 0 1 .612-.107.483.483 0 0 1 .415.169.842.842 0 0 1 .125.5c0 .02 0 .081-.009.18s-.014.229-.024.389l-.038.556c-.015.211-.031.437-.05.679s-.04.494-.064.755l-.074.785h.043a16.576 16.576 0 0 1 .477-1.606 7.1 7.1 0 0 1 .6-1.294 3.152 3.152 0 0 1 .73-.863 1.37 1.37 0 0 1 .872-.315.9.9 0 0 1 .311.053.729.729 0 0 1 .251.148.681.681 0 0 1 .167.223.659.659 0 0 1 .062.284.889.889 0 0 1-.086.38.876.876 0 0 1-.271.323h-.035a1.416 1.416 0 0 0-.349-.222.913.913 0 0 0-.349-.069 1 1 0 0 0-.382.076 1.131 1.131 0 0 0-.339.215 2.509 2.509 0 0 0-.466.6 6.322 6.322 0 0 0-.393.833c-.118.3-.226.625-.321.96s-.177.662-.246.98-.125.617-.167.9-.072.515-.089.705zm8.098-4.632a1.461 1.461 0 0 0-.115-.6 1.183 1.183 0 0 0-.716-.66 1.429 1.429 0 0 0-.466-.078 1.822 1.822 0 0 0-.527.065.963.963 0 0 0-.35.181.678.678 0 0 0-.193.269.957.957 0 0 0-.059.336 1.257 1.257 0 0 0 .077.425 1.643 1.643 0 0 0 .226.415l-.017.049a1.139 1.139 0 0 1-.506.123.817.817 0 0 1-.279-.047.626.626 0 0 1-.224-.134.638.638 0 0 1-.15-.216.717.717 0 0 1-.054-.285 1.007 1.007 0 0 1 .125-.488 1.648 1.648 0 0 1 .332-.417 2.5 2.5 0 0 1 .478-.339 3.827 3.827 0 0 1 .563-.252 3.732 3.732 0 0 1 .583-.158 2.912 2.912 0 0 1 .542-.055 2.247 2.247 0 0 1 .789.123 1.288 1.288 0 0 1 .532.358 1.475 1.475 0 0 1 .3.569 2.821 2.821 0 0 1 .095.756c0 .193-.009.406-.025.638s-.035.473-.055.726-.039.516-.055.785-.024.537-.024.8a1.6 1.6 0 0 0 .235.951.733.733 0 0 0 .617.32 1.5 1.5 0 0 0 .756-.251l.128.188a2.107 2.107 0 0 1-.642.449 1.786 1.786 0 0 1-.729.154 1.417 1.417 0 0 1-.528-.1 1.129 1.129 0 0 1-.417-.288 1.291 1.291 0 0 1-.273-.482 2.108 2.108 0 0 1-.1-.672q0-.114.006-.228a2.265 2.265 0 0 1 .029-.242h-.027a6.373 6.373 0 0 1-.437.745 4.2 4.2 0 0 1-.544.655 2.833 2.833 0 0 1-.633.466 1.5 1.5 0 0 1-.706.178 1.4 1.4 0 0 1-.553-.106 1.256 1.256 0 0 1-.429-.29 1.3 1.3 0 0 1-.277-.437 1.5 1.5 0 0 1-.1-.551 1.692 1.692 0 0 1 .143-.7 1.91 1.91 0 0 1 .395-.568 2.443 2.443 0 0 1 .605-.432 4.221 4.221 0 0 1 .765-.3 5.7 5.7 0 0 1 .874-.18 7.293 7.293 0 0 1 .941-.059c.019-.185.037-.363.05-.536s.024-.365.024-.573zm-2.7 3.02a1.4 1.4 0 0 0 .038.327.854.854 0 0 0 .118.275.586.586 0 0 0 .207.186.614.614 0 0 0 .3.068 1 1 0 0 0 .408-.092 1.86 1.86 0 0 0 .416-.254 2.665 2.665 0 0 0 .391-.39 3.224 3.224 0 0 0 .336-.494 3.446 3.446 0 0 0 .249-.565 2.927 2.927 0 0 0 .13-.608c-.218.006-.433.02-.647.041a4.609 4.609 0 0 0-.608.1 2.842 2.842 0 0 0-.534.184 1.571 1.571 0 0 0-.424.283 1.216 1.216 0 0 0-.279.4 1.3 1.3 0 0 0-.1.539zm6.128 1.612h-.07c.023-.277.045-.581.065-.909s.04-.661.058-1 .033-.674.046-1.006l.035-.931a60.32 60.32 0 0 0 .029-1.317 2.517 2.517 0 0 0-.014-.281.486.486 0 0 0-.059-.2.268.268 0 0 0-.134-.116.617.617 0 0 0-.237-.038 1.365 1.365 0 0 0-.154.009c-.052.006-.112.015-.175.027s-.138.027-.218.046l-.279.068-.066-.317a11.6 11.6 0 0 1 1.182-.371 3.264 3.264 0 0 1 .611-.107.483.483 0 0 1 .415.169.842.842 0 0 1 .125.5c0 .02 0 .081-.009.18s-.013.229-.024.389l-.037.556c-.014.211-.031.437-.051.679s-.04.494-.063.755-.049.525-.075.785h.043a16.3 16.3 0 0 1 .478-1.606 7.1 7.1 0 0 1 .6-1.294 3.132 3.132 0 0 1 .729-.863 1.374 1.374 0 0 1 .872-.315.908.908 0 0 1 .312.053.748.748 0 0 1 .252.149.7.7 0 0 1 .167.223.658.658 0 0 1 .061.284.875.875 0 0 1-.086.38.863.863 0 0 1-.27.323h-.036a1.43 1.43 0 0 0-.348-.222.918.918 0 0 0-.35-.069 1 1 0 0 0-.382.076 1.114 1.114 0 0 0-.338.215 2.485 2.485 0 0 0-.466.6 6.2 6.2 0 0 0-.394.833q-.177.457-.32.96t-.246.98a13.857 13.857 0 0 0-.257 1.605zm5.66-6.258c.047.109.1.243.16.4s.125.335.194.524.138.392.209.6.137.421.2.628l.184.609c.07.23.142.47.213.721s.142.5.209.747.124.476.171.687l.455-1.188q.236-.614.477-1.233t.484-1.228c.16-.406.318-.8.47-1.176a.429.429 0 0 1 .107-.158.585.585 0 0 1 .152-.1.663.663 0 0 1 .173-.052 1 1 0 0 1 .178-.016.937.937 0 0 1 .281.042 1.6 1.6 0 0 1 .26.1c-.132.214-.268.452-.411.714s-.288.542-.436.839-.3.608-.452.93-.3.651-.45.986-.3.673-.441 1.011-.285.672-.42 1-.269.658-.392.982l-.359.941c-.116.304-.233.595-.346.874s-.227.541-.345.784a6.08 6.08 0 0 1-.356.631 2.705 2.705 0 0 1-.417.506 1.852 1.852 0 0 1-.5.336 1.476 1.476 0 0 1-.609.123 1.2 1.2 0 0 1-.373-.055.9.9 0 0 1-.282-.147.665.665 0 0 1-.175-.213.553.553 0 0 1-.062-.253.612.612 0 0 1 .086-.3.577.577 0 0 1 .226-.235 1.4 1.4 0 0 0 .374.163 1.436 1.436 0 0 0 .339.048 1.083 1.083 0 0 0 .636-.194 2 2 0 0 0 .524-.585 7.1 7.1 0 0 0 .494-.977q.248-.586.551-1.378l.088-.233-.171-.021q-.225-.879-.475-1.7t-.519-1.647a44.55 44.55 0 0 0-.892-2.473.772.772 0 0 1-.041-.119.3.3 0 0 1-.012-.08.281.281 0 0 1 .1-.218.522.522 0 0 1 .353-.093 1.5 1.5 0 0 1 .258.026 1.4 1.4 0 0 1 .33.12z" fill="#fff"/></svg>